<?xml version="1.0" standalone="no"?>
<!DOCTYPE svg PUBLIC "-//W3C//DTD SVG 20010904//EN"
 "http://www.w3.org/TR/2001/REC-SVG-20010904/DTD/svg10.dtd">
<svg version="1.0" xmlns="http://www.w3.org/2000/svg"
 width="319.000000pt" height="319.000000pt" viewBox="0 0 319.000000 319.000000"
 preserveAspectRatio="xMidYMid meet">
<metadata>
Created by potrace 1.14, written by Peter Selinger 2001-2017
</metadata>
<g transform="translate(0.000000,319.000000) scale(0.100000,-0.100000)"
fill="#000000" stroke="none">
<path d="M1300 2647 c1 -259 0 -495 0 -522 0 -49 -1 -51 -47 -80 -27 -16 -62
-37 -80 -47 -31 -17 -174 -107 -182 -114 -3 -2 -5 -92 -5 -199 l-1 -194 -75
-48 c-41 -27 -123 -80 -182 -118 l-108 -70 0 -587 0 -588 970 0 970 0 0 868 0
867 -180 119 -180 119 -1 51 c0 28 0 151 0 273 l0 221 -67 40 c-103 61 -731
425 -784 455 l-48 26 0 -472z"/>
</g>
</svg>
